<svg width="99" height="72" viewBox="0 0 99 72" fill="none" xmlns="http://www.w3.org/2000/svg">
<rect x="0.453297" y="0.453297" width="97.2834" height="71.0934" rx="7.5467" fill="#F2F2F2"/>
<rect x="0.453297" y="0.453297" width="97.2834" height="71.0934" rx="7.5467" stroke="#F0F3FF" stroke-width="0.906593"/>
<path d="M47.2311 14.394H50.9591V11.515H53.8301V7.79401H50.9591V4.914H47.2311V7.79401H44.3501V11.515H47.2311V14.394Z" fill="#FF7F24"/>
<path d="M70.561 24.8159V66.0859V67.0859H90.19V66.5859V66.0859V50.0669V44.3199V41.6459V35.8999V33.2259V27.4889V24.8159H70.561ZM79.106 50.0669H73.358V44.3199H79.106V50.0669ZM79.106 41.6459H73.358V35.8999H79.106V41.6459ZM79.106 33.2259H73.358V27.4889H79.106V33.2259ZM87.526 50.0669H81.78V44.3199H87.526V50.0669ZM87.526 41.6459H81.78V35.8999H87.526V41.6459ZM87.526 33.2259H81.78V27.4889H87.526V33.2259Z" fill="#FF7F24"/>
<path d="M27.629 66.0849V50.0669V44.3199V41.6459V35.8999V33.2259V27.4889V24.8159H8V66.0859V66.5859V67.0859H27.629V66.0849ZM16.547 50.0669H10.797V44.3199H16.547V50.0669ZM16.547 41.6459H10.797V35.8999H16.547V41.6459ZM16.547 33.2259H10.797V27.4889H16.547V33.2259ZM24.965 50.0669H19.219V44.3199H24.965V50.0669ZM24.965 41.6459H19.219V35.8999H24.965V41.6459ZM19.219 33.2259V27.4889H24.965V33.2259H19.219Z" fill="#FF7F24"/>
<path d="M28.6289 24.8159V66.086V67.086H69.5609V66.086V24.8159V20.5049H71.3309V16.545V12.585H51.9599V15.394H46.2309V12.585H26.8599V16.545V20.5049H28.6299V24.8159H28.6289ZM40.2209 66.085H31.7699V51.045H40.2209V66.085ZM48.6699 66.085H41.2209V51.045H48.6699V66.085ZM57.1099 66.085H49.6709V51.045H57.1099V66.085ZM66.5609 66.085H58.1099V51.045H66.5609V66.085ZM66.5609 46.045H31.7699V41.595H66.5609V46.045ZM66.5609 36.595H31.7699V32.146H66.5609V36.595ZM66.5609 27.146H31.7699V22.706H66.5609V27.146ZM27.8599 19.5049V17.545H70.3309V19.5049H47.2309H27.8599Z" fill="#0027B2"/>
</svg>
