<svg width="168" height="36" viewBox="0 0 168 36" fill="none" xmlns="http://www.w3.org/2000/svg">
<path d="M0 4C0 1.79086 1.79086 0 4 0H32C34.2091 0 36 1.79086 36 4V32C36 34.2091 34.2091 36 32 36H4C1.79086 36 0 34.2091 0 32V4Z" fill="#4D4D4D"/>
<path d="M18 8.06079C12.4772 8.06079 8 12.5379 8 18.0608C8 23.0521 11.6569 27.1891 16.4375 27.9393V20.9514H13.8984V18.0608H16.4375V15.8577C16.4375 13.3514 17.9304 11.967 20.2146 11.967C21.3087 11.967 22.4531 12.1624 22.4531 12.1624V14.6233H21.1921C19.9499 14.6233 19.5625 15.3941 19.5625 16.185V18.0608H22.3359L21.8926 20.9514H19.5625V27.9393C24.3431 27.1891 28 23.0521 28 18.0608C28 12.5379 23.5228 8.06079 18 8.06079Z" fill="white"/>
<path d="M44 4C44 1.79086 45.7909 0 48 0H76C78.2091 0 80 1.79086 80 4V32C80 34.2091 78.2091 36 76 36H48C45.7909 36 44 34.2091 44 32V4Z" fill="#4D4D4D"/>
<path d="M62 15C60.3426 15 59 16.3431 59 18C59 19.6573 60.3431 21 62 21C63.6573 21 65 19.6569 65 18C65 16.3427 63.6569 15 62 15ZM62 13C64.7604 13 67 15.2371 67 18C67 20.7605 64.7629 23 62 23C59.2395 23 57 20.7629 57 18C57 15.2395 59.2371 13 62 13ZM68.5 12.7491C68.5 13.4393 67.9392 13.9992 67.25 13.9992C66.5599 13.9992 66 13.4384 66 12.7491C66 12.0599 66.5607 11.5 67.25 11.5C67.9383 11.4991 68.5 12.0599 68.5 12.7491ZM62 10C59.5255 10 59.1222 10.0065 57.9713 10.0578C57.1872 10.0946 56.6616 10.2001 56.1732 10.3897C55.7392 10.558 55.4261 10.759 55.0925 11.0925C54.7577 11.4274 54.5571 11.7396 54.3894 12.1738C54.1994 12.6633 54.094 13.1881 54.0578 13.9711C54.0061 15.0752 54 15.4611 54 18C54 20.4745 54.0066 20.8778 54.0578 22.0286C54.0946 22.8124 54.2002 23.3388 54.3894 23.826C54.5581 24.2606 54.7595 24.5744 55.0915 24.9064C55.4277 25.2421 55.7408 25.4434 56.1709 25.6094C56.6652 25.8005 57.1905 25.9061 57.9711 25.9422C59.0752 25.9939 59.4611 26 62 26C64.4745 26 64.8778 25.9934 66.0286 25.9422C66.8107 25.9055 67.3375 25.7996 67.826 25.6106C68.2594 25.4423 68.5742 25.2402 68.9064 24.9085C69.2426 24.5718 69.4435 24.2594 69.6097 23.8283C69.8003 23.3358 69.9061 22.8098 69.9422 22.0289C69.9939 20.9248 70 20.5389 70 18C70 15.5255 69.9934 15.1222 69.9422 13.9714C69.9054 13.1891 69.7995 12.6615 69.6103 12.1732C69.4424 11.7404 69.2407 11.4263 68.9074 11.0925C68.572 10.7571 68.2606 10.5569 67.8261 10.3894C67.337 10.1995 66.8114 10.094 66.0288 10.0578C64.9248 10.006 64.5389 10 62 10ZM62 8C64.7166 8 65.0558 8.01 66.1225 8.06C67.1866 8.10917 67.9125 8.2775 68.55 8.525C69.2091 8.77917 69.7658 9.1225 70.3216 9.67833C70.8766 10.2342 71.22 10.7925 71.475 11.45C71.7216 12.0867 71.89 12.8133 71.94 13.8775C71.9875 14.9442 72 15.2833 72 18C72 20.7167 71.99 21.0558 71.94 22.1225C71.8908 23.1867 71.7216 23.9125 71.475 24.55C71.2208 25.2092 70.8766 25.7658 70.3216 26.3217C69.7658 26.8767 69.2066 27.22 68.55 27.475C67.9125 27.7217 67.1866 27.89 66.1225 27.94C65.0558 27.9875 64.7166 28 62 28C59.2833 28 58.9442 27.99 57.8775 27.94C56.8133 27.8908 56.0883 27.7217 55.45 27.475C54.7917 27.2208 54.2342 26.8767 53.6783 26.3217C53.1225 25.7658 52.78 25.2067 52.525 24.55C52.2775 23.9125 52.11 23.1867 52.06 22.1225C52.0125 21.0558 52 20.7167 52 18C52 15.2833 52.01 14.9442 52.06 13.8775C52.1092 12.8125 52.2775 12.0875 52.525 11.45C52.7792 10.7917 53.1225 10.2342 53.6783 9.67833C54.2342 9.1225 54.7925 8.78 55.45 8.525C56.0875 8.2775 56.8125 8.11 57.8775 8.06C58.9442 8.0125 59.2833 8 62 8Z" fill="white"/>
<path d="M88 4C88 1.79086 89.7909 0 92 0H120C122.209 0 124 1.79086 124 4V32C124 34.2091 122.209 36 120 36H92C89.7909 36 88 34.2091 88 32V4Z" fill="#4D4D4D"/>
<path d="M102 8H95L103.261 19.0145L95.4499 27.9999H98.1L104.488 20.651L110 28H117L108.392 16.5223L115.8 8H113.15L107.164 14.8858L102 8ZM111 26L99 10H101L113 26H111Z" fill="white"/>
<path d="M132 4C132 1.79086 133.791 0 136 0H164C166.209 0 168 1.79086 168 4V32C168 34.2091 166.209 36 164 36H136C133.791 36 132 34.2091 132 32V4Z" fill="#4D4D4D"/>
<path d="M144.47 11.0004C144.469 11.8147 143.975 12.5475 143.221 12.8532C142.466 13.1589 141.601 12.9765 141.034 12.392C140.467 11.8075 140.311 10.9376 140.64 10.1926C140.968 9.44748 141.716 8.97599 142.53 9.00042C143.611 9.03287 144.47 9.91886 144.47 11.0004ZM144.53 14.4804H140.53V27.0004H144.53V14.4804ZM150.85 14.4804H146.87V27.0004H150.81V20.4304C150.81 16.7704 155.58 16.4304 155.58 20.4304V27.0004H159.53V19.0704C159.53 12.9004 152.47 13.1304 150.81 16.1604L150.85 14.4804Z" fill="white"/>
</svg>
