<svg width="110" height="77" viewBox="0 0 110 77" fill="none" xmlns="http://www.w3.org/2000/svg">
<mask id="mask0_3552_7243" style="mask-type:luminance" maskUnits="userSpaceOnUse" x="0" y="0" width="110" height="77">
<path d="M110 0H0V76.7945H110V0Z" fill="white"/>
</mask>
<g mask="url(#mask0_3552_7243)">
<path d="M110 36.8758C110 36.4411 110 36.0065 109.979 35.5718L109.414 26.1373C109.442 26.5719 109.442 27.0066 109.435 27.4413C109.435 27.5624 109.428 27.6836 109.421 27.8047C109.414 28.0897 109.385 28.3748 109.364 28.6669C109.342 28.8807 109.328 29.1016 109.299 29.3225C109.271 29.579 109.228 29.8355 109.185 30.0992C109.149 30.313 109.114 30.5339 109.071 30.7476C109.021 30.9971 108.956 31.2464 108.899 31.4958C108.842 31.731 108.778 31.9733 108.713 32.2084C108.642 32.4507 108.563 32.7001 108.477 32.9424C108.399 33.1775 108.32 33.4198 108.234 33.655C108.091 34.0397 107.934 34.4317 107.762 34.8165C107.734 34.8735 107.705 34.9376 107.677 34.9946C107.476 35.4293 107.269 35.8711 107.033 36.3057C107.019 36.3271 107.005 36.3485 106.997 36.3699C106.747 36.8331 106.483 37.2962 106.197 37.7523C106.011 38.0516 105.811 38.3509 105.618 38.6501C105.553 38.7499 105.482 38.8425 105.417 38.9352C105.282 39.1347 105.139 39.3342 104.996 39.5337C104.917 39.6477 104.831 39.7617 104.745 39.8686C104.61 40.0468 104.474 40.2321 104.331 40.4102C104.238 40.5242 104.145 40.6453 104.052 40.7594C103.945 40.8947 103.83 41.0302 103.723 41.1584C103.351 41.6073 102.958 42.0491 102.55 42.4909C102.493 42.5551 102.429 42.6192 102.365 42.6833C101.964 43.1109 101.542 43.5384 101.113 43.9588C101.071 44.0016 101.035 44.0372 100.992 44.08C100.542 44.5146 100.07 44.9422 99.5835 45.3697C99.4906 45.4481 99.3976 45.5336 99.3047 45.612C98.8257 46.0253 98.3252 46.4386 97.8105 46.8448C97.7032 46.9303 97.596 47.0087 97.4887 47.0942C97.1313 47.3721 96.7595 47.65 96.3877 47.9279C96.2734 48.0134 96.159 48.0989 96.0374 48.1844C95.5656 48.5265 95.0865 48.8614 94.5932 49.1892C94.5074 49.2462 94.4145 49.3103 94.3216 49.3673C93.8997 49.6452 93.4708 49.9231 93.0347 50.1939C92.8917 50.2794 92.7487 50.372 92.6057 50.4575C92.0767 50.7853 91.5405 51.106 90.99 51.4195L63.3005 67.3528L0 25.7169L0.5648 35.1514L63.851 76.8015L91.5405 60.8683C92.091 60.5548 92.6272 60.227 93.1562 59.9063C93.2992 59.8208 93.4422 59.7282 93.5852 59.6427C94.0213 59.3719 94.4503 59.094 94.8721 58.8161C94.965 58.7591 95.058 58.695 95.1437 58.6379C95.6371 58.3102 96.1161 57.9681 96.5879 57.6332C96.7023 57.5477 96.8167 57.4622 96.9311 57.3838C97.31 57.1059 97.6746 56.828 98.0392 56.5501C98.1107 56.4931 98.1894 56.4432 98.2609 56.3862C98.2966 56.3577 98.3252 56.3292 98.361 56.3078C98.8757 55.9016 99.369 55.4884 99.8552 55.0751C99.9481 54.9967 100.041 54.9111 100.134 54.8328C100.62 54.4052 101.092 53.9777 101.542 53.543C101.585 53.5002 101.621 53.4646 101.664 53.4219C102.1 53.0015 102.515 52.5739 102.915 52.1464C102.979 52.0822 103.044 52.0181 103.101 51.954C103.509 51.5122 103.895 51.0704 104.266 50.6215C104.302 50.5787 104.345 50.5359 104.381 50.4932C104.452 50.4077 104.524 50.315 104.595 50.2224C104.688 50.1084 104.781 49.9872 104.874 49.8732C105.017 49.6951 105.153 49.5098 105.289 49.3317C105.374 49.2177 105.46 49.1108 105.539 48.9968C105.682 48.7973 105.825 48.5977 105.961 48.3982C106.025 48.2984 106.097 48.2058 106.161 48.1132C106.361 47.8139 106.554 47.5217 106.74 47.2153C106.883 46.9873 107.019 46.7593 107.155 46.5241C107.291 46.289 107.419 46.0609 107.541 45.8258C107.555 45.8044 107.569 45.783 107.576 45.7617C107.805 45.327 108.02 44.8923 108.22 44.4505C108.249 44.3935 108.277 44.3294 108.306 44.2652C108.449 43.9517 108.577 43.6382 108.699 43.3246C108.728 43.2534 108.749 43.175 108.778 43.1037C108.863 42.8686 108.942 42.6263 109.021 42.3912C109.099 42.1489 109.185 41.8995 109.257 41.6572C109.328 41.4221 109.385 41.1798 109.442 40.9446C109.485 40.7807 109.535 40.6097 109.571 40.4458C109.593 40.3675 109.6 40.2819 109.614 40.2035C109.657 39.9898 109.693 39.7689 109.728 39.5551C109.771 39.2986 109.814 39.042 109.843 38.7784C109.871 38.5646 109.893 38.3437 109.907 38.1228C109.921 37.9732 109.943 37.8235 109.95 37.6739C109.957 37.5385 109.957 37.4031 109.964 37.2677C109.964 37.1466 109.972 37.0255 109.979 36.9043" fill="#4D4D4D"/>
<path d="M27.6823 9.78361C34.6029 5.8003 42.3957 2.96425 50.8749 1.35382C59.3254 -0.24235 67.7974 -0.420502 76.0406 0.812258C84.2982 2.04502 91.5333 4.66019 97.5388 8.61499C103.544 12.5627 107.298 17.1802 108.756 22.3464C110.207 27.4912 109.335 32.693 106.182 37.7523C103.015 42.8401 97.8962 47.4505 90.9685 51.4338L63.279 67.367L0 25.7169L27.6895 9.78361H27.6823Z" fill="#999999"/>
<path d="M94.7503 28.225C94.7503 27.94 94.7503 27.6479 94.736 27.3628L94.3571 21.0922C94.3785 21.3772 94.3785 21.6693 94.3714 21.9544C94.3714 22.0327 94.3714 22.1183 94.3642 22.1966C94.3571 22.389 94.3428 22.5743 94.3285 22.7667C94.3142 22.9092 94.2999 23.0589 94.2856 23.2014C94.2642 23.3724 94.2356 23.5434 94.207 23.7144C94.1855 23.8569 94.1569 23.9995 94.1283 24.142C94.0926 24.3059 94.0497 24.4698 94.0139 24.6337C93.9782 24.7904 93.9353 24.9472 93.8924 25.1039C93.8423 25.2678 93.7923 25.4317 93.7351 25.5885C93.6851 25.7453 93.6279 25.9021 93.5707 26.0588C93.4706 26.3153 93.3705 26.5719 93.2561 26.8284C93.2346 26.8711 93.2203 26.9068 93.1989 26.9495C93.0631 27.2417 92.9272 27.5339 92.7699 27.8189C92.7628 27.8331 92.7556 27.8474 92.7485 27.8616C92.584 28.168 92.4053 28.4744 92.2194 28.7808C92.0979 28.9804 91.9621 29.1799 91.8334 29.3794C91.7905 29.4435 91.7476 29.5077 91.6975 29.5718C91.6046 29.7072 91.5116 29.8355 91.4187 29.9709C91.3615 30.0421 91.3043 30.1205 91.2543 30.1989C91.1613 30.32 91.0755 30.4412 90.9754 30.5552C90.9182 30.6336 90.8539 30.7119 90.7896 30.7903C90.7181 30.883 90.6466 30.9685 90.5679 31.0611C90.3177 31.3604 90.0603 31.6525 89.7886 31.9447C89.7457 31.9874 89.71 32.0302 89.6671 32.073C89.4026 32.358 89.1238 32.643 88.8306 32.9209C88.802 32.9494 88.7806 32.9779 88.752 32.9993C88.4517 33.2915 88.1371 33.5765 87.8154 33.8544C87.7511 33.9114 87.6939 33.9613 87.6295 34.0183C87.3078 34.2962 86.9789 34.567 86.6358 34.8378C86.5643 34.8948 86.4928 34.9447 86.4213 35.0017C86.1782 35.1869 85.9351 35.3722 85.6849 35.5575C85.6063 35.6145 85.5276 35.6715 85.4561 35.7285C85.1416 35.9565 84.827 36.1774 84.4981 36.3983C84.4409 36.4411 84.3766 36.4767 84.3194 36.5195C84.0406 36.7047 83.7546 36.89 83.4615 37.0681C83.3685 37.1251 83.2756 37.1821 83.1755 37.2463C82.8252 37.46 82.4677 37.6738 82.1031 37.8876L63.7006 48.4765L21.6266 20.7929L22.0055 27.0635L64.0795 54.7472L82.482 44.1583C82.8466 43.9516 83.2041 43.7307 83.5544 43.517C83.6473 43.46 83.7403 43.3958 83.8404 43.3388C84.1335 43.1607 84.4123 42.9754 84.6912 42.7901C84.7483 42.7474 84.8127 42.7118 84.877 42.669C85.2059 42.4481 85.5276 42.2272 85.835 41.9992C85.9137 41.9422 85.9852 41.8852 86.0638 41.8281C86.3141 41.6429 86.5571 41.4576 86.8002 41.2723C86.8503 41.2367 86.9003 41.2011 86.9504 41.1655C86.9718 41.1512 86.9932 41.1298 87.0147 41.1156C87.3579 40.8448 87.6867 40.574 88.0085 40.2961C88.0728 40.2391 88.13 40.1892 88.1943 40.1322C88.5161 39.8472 88.8306 39.5622 89.1309 39.2771C89.1595 39.2486 89.1809 39.2201 89.2096 39.1988C89.4955 38.9208 89.7744 38.6358 90.046 38.3508C90.0889 38.308 90.1318 38.2653 90.1676 38.2225C90.4392 37.9303 90.6966 37.6311 90.9468 37.3389C90.9683 37.3104 90.9969 37.2819 91.0255 37.2534C91.0755 37.1964 91.1184 37.1323 91.1685 37.0753C91.2328 36.9969 91.2972 36.9185 91.3544 36.8401C91.4473 36.719 91.5402 36.5978 91.6332 36.4767C91.6904 36.4054 91.7476 36.3271 91.7976 36.2558C91.8977 36.1275 91.9907 35.9922 92.0836 35.8568C92.1265 35.7926 92.1694 35.7285 92.2194 35.6644C92.3553 35.4648 92.484 35.2724 92.6055 35.0729C92.6984 34.9233 92.7914 34.7665 92.8843 34.6169C92.9701 34.4601 93.0559 34.3105 93.1417 34.1537C93.1488 34.1394 93.156 34.1252 93.1631 34.1109C93.3204 33.8259 93.4563 33.5337 93.5921 33.2416C93.6136 33.1988 93.6279 33.1632 93.6493 33.1204C93.7422 32.9138 93.828 32.7072 93.9138 32.4934C93.9353 32.4435 93.9496 32.3936 93.9639 32.3437C94.0211 32.187 94.0783 32.0302 94.1283 31.8734C94.1855 31.7095 94.2356 31.5528 94.2856 31.3889C94.3285 31.2321 94.3714 31.0682 94.4071 30.9115C94.4357 30.7975 94.4715 30.6906 94.4929 30.5766C94.5072 30.5267 94.5144 30.4697 94.5215 30.4127C94.5501 30.2701 94.5716 30.1276 94.6002 29.978C94.6288 29.807 94.6574 29.636 94.6788 29.4649C94.6931 29.3224 94.7074 29.1728 94.7217 29.0303C94.7289 28.9305 94.7432 28.8307 94.7503 28.731C94.7503 28.6383 94.7503 28.5528 94.7575 28.4602C94.7575 28.3818 94.7575 28.2963 94.7646 28.2179" fill="#4D4D4D"/>
<path d="M40.0291 10.2111C44.6261 7.56748 49.8094 5.67916 55.4431 4.60316C61.0625 3.54142 66.6891 3.42029 72.1726 4.24688C77.6633 5.06634 82.4677 6.80503 86.4642 9.43444C90.4535 12.0567 92.9487 15.1279 93.921 18.5626C94.8861 21.9829 94.307 25.4389 92.2123 28.8023C90.1032 32.187 86.7001 35.2511 82.1031 37.9019L63.7006 48.4908L21.6266 20.8072L40.0291 10.2183V10.2111Z" fill="#999999"/>
<path d="M63.1431 21.9259C64.7231 20.9426 67.0467 20.9711 68.5123 22.0043C69.6276 22.7882 69.8349 23.9212 69.0628 24.8618L70.9502 26.1943C71.465 26.5577 71.4364 27.0351 70.8787 27.3843C70.3211 27.7335 69.6061 27.7192 69.0914 27.3558L67.2039 26.0233C65.7455 26.4793 64.0511 26.2727 62.9358 25.4888C61.4773 24.4627 61.5631 22.9236 63.1502 21.9402M66.5819 24.3487C67.1396 23.9995 67.1682 23.5293 66.6534 23.1658C66.1387 22.8024 65.4237 22.7953 64.8661 23.1444C64.3084 23.4936 64.2798 23.9639 64.7946 24.3273C65.3094 24.6907 66.0243 24.705 66.5819 24.3558" fill="#E6E6E6"/>
<path d="M67.2178 13.6814C68.7979 12.698 71.1286 12.7336 72.587 13.7598L83.7543 21.6266C85.2128 22.6527 85.127 24.1919 83.5398 25.1824L66.796 35.6145C65.216 36.5979 62.8853 36.5694 61.4269 35.5361L50.2596 27.6693C48.8011 26.6432 48.894 25.0969 50.474 24.1135L47.0423 21.6979C42.7456 18.6694 43.0244 13.9308 47.6786 11.0377C52.3329 8.13752 59.4894 8.24441 63.7862 11.2729L67.2178 13.6885V13.6814ZM81.9026 22.7881L70.7353 14.9213C70.2206 14.5578 69.5056 14.5436 68.9408 14.8928L68.0114 15.4771L53.1265 24.7477L52.197 25.3249C51.6394 25.6741 51.6108 26.1443 52.1255 26.5078L63.2928 34.3746C63.8076 34.738 64.5225 34.7452 65.0873 34.4031L81.8312 23.9781C82.3888 23.629 82.4174 23.1586 81.9026 22.7881ZM48.894 20.5364L52.3257 22.952L65.3519 14.8429L61.9202 12.4272C58.5671 10.0686 53.0192 9.98309 49.3873 12.242C45.7626 14.5008 45.541 18.1706 48.894 20.5364Z" fill="#E6E6E6"/>
</g>
</svg>
