<svg width="20" height="20" viewBox="0 0 20 20" fill="none" xmlns="http://www.w3.org/2000/svg">
<path d="M9.99984 18.9584C5.05817 18.9584 1.0415 14.9417 1.0415 10C1.0415 5.05835 5.05817 1.04169 9.99984 1.04169C14.9415 1.04169 18.9582 5.05835 18.9582 10C18.9582 14.9417 14.9415 18.9584 9.99984 18.9584ZM9.99984 2.29169C5.74984 2.29169 2.2915 5.75002 2.2915 10C2.2915 14.25 5.74984 17.7084 9.99984 17.7084C14.2498 17.7084 17.7082 14.25 17.7082 10C17.7082 5.75002 14.2498 2.29169 9.99984 2.29169Z" fill="#0027B2"/>
<path d="M13.0919 13.2751C12.9835 13.2751 12.8752 13.2501 12.7752 13.1834L10.1919 11.6418C9.55019 11.2584 9.0752 10.4168 9.0752 9.67509V6.25842C9.0752 5.91676 9.35853 5.63342 9.7002 5.63342C10.0419 5.63342 10.3252 5.91676 10.3252 6.25842V9.67509C10.3252 9.97509 10.5752 10.4168 10.8335 10.5668L13.4169 12.1084C13.7169 12.2834 13.8085 12.6668 13.6335 12.9668C13.5085 13.1668 13.3002 13.2751 13.0919 13.2751Z" fill="#0027B2"/>
</svg>
