<svg width="20" height="20" viewBox="0 0 20 20" fill="none" xmlns="http://www.w3.org/2000/svg">
<path d="M12.4998 10.7916H6.6665C6.32484 10.7916 6.0415 10.5083 6.0415 10.1666C6.0415 9.82496 6.32484 9.54163 6.6665 9.54163H12.4998C12.8415 9.54163 13.1248 9.82496 13.1248 10.1666C13.1248 10.5083 12.8415 10.7916 12.4998 10.7916Z" fill="#0027B2"/>
<path d="M10.3165 14.1249H6.6665C6.32484 14.1249 6.0415 13.8416 6.0415 13.4999C6.0415 13.1583 6.32484 12.8749 6.6665 12.8749H10.3165C10.6582 12.8749 10.9415 13.1583 10.9415 13.4999C10.9415 13.8416 10.6582 14.1249 10.3165 14.1249Z" fill="#0027B2"/>
<path d="M11.6665 5.62502H8.33317C7.53317 5.62502 6.0415 5.62502 6.0415 3.33335C6.0415 1.04169 7.53317 1.04169 8.33317 1.04169H11.6665C12.4665 1.04169 13.9582 1.04169 13.9582 3.33335C13.9582 4.13335 13.9582 5.62502 11.6665 5.62502ZM8.33317 2.29169C7.50817 2.29169 7.2915 2.29169 7.2915 3.33335C7.2915 4.37502 7.50817 4.37502 8.33317 4.37502H11.6665C12.7082 4.37502 12.7082 4.15835 12.7082 3.33335C12.7082 2.29169 12.4915 2.29169 11.6665 2.29169H8.33317Z" fill="#0027B2"/>
<path d="M12.5 18.9584H7.5C2.81667 18.9584 1.875 16.8084 1.875 13.3334V8.33338C1.875 4.53338 3.25 2.90838 6.63333 2.73338C6.96667 2.71671 7.275 2.97504 7.29167 3.32504C7.30833 3.67504 7.04167 3.95838 6.7 3.97504C4.33333 4.10838 3.125 4.81671 3.125 8.33338V13.3334C3.125 16.4167 3.73333 17.7084 7.5 17.7084H12.5C16.2667 17.7084 16.875 16.4167 16.875 13.3334V8.33338C16.875 4.81671 15.6667 4.10838 13.3 3.97504C12.9583 3.95838 12.6917 3.65838 12.7083 3.31671C12.725 2.97504 13.025 2.70838 13.3667 2.72504C16.75 2.90838 18.125 4.53338 18.125 8.32504V13.325C18.125 16.8084 17.1833 18.9584 12.5 18.9584Z" fill="#0027B2"/>
</svg>
