<svg width="20" height="20" viewBox="0 0 20 20" fill="none" xmlns="http://www.w3.org/2000/svg">
<path d="M14.6831 8.01666H10.3081C9.96644 8.01666 9.68311 7.73333 9.68311 7.39166C9.68311 7.05 9.96644 6.76666 10.3081 6.76666H14.6831C15.0248 6.76666 15.3081 7.05 15.3081 7.39166C15.3081 7.73333 15.0331 8.01666 14.6831 8.01666Z" fill="#0027B2"/>
<path d="M5.93346 8.65002C5.77513 8.65002 5.6168 8.59168 5.4918 8.46668L4.8668 7.84168C4.62513 7.60002 4.62513 7.20002 4.8668 6.95835C5.10846 6.71668 5.50846 6.71668 5.75013 6.95835L5.93346 7.14168L7.3668 5.70835C7.60846 5.46668 8.00846 5.46668 8.25013 5.70835C8.4918 5.95002 8.4918 6.35002 8.25013 6.59168L6.37513 8.46668C6.25846 8.58335 6.10013 8.65002 5.93346 8.65002Z" fill="#0027B2"/>
<path d="M14.6831 13.85H10.3081C9.96644 13.85 9.68311 13.5666 9.68311 13.225C9.68311 12.8833 9.96644 12.6 10.3081 12.6H14.6831C15.0248 12.6 15.3081 12.8833 15.3081 13.225C15.3081 13.5666 15.0331 13.85 14.6831 13.85Z" fill="#0027B2"/>
<path d="M5.93346 14.4833C5.77513 14.4833 5.6168 14.425 5.4918 14.3L4.8668 13.675C4.62513 13.4333 4.62513 13.0333 4.8668 12.7917C5.10846 12.55 5.50846 12.55 5.75013 12.7917L5.93346 12.975L7.3668 11.5417C7.60846 11.3 8.00846 11.3 8.25013 11.5417C8.4918 11.7833 8.4918 12.1833 8.25013 12.425L6.37513 14.3C6.25846 14.4167 6.10013 14.4833 5.93346 14.4833Z" fill="#0027B2"/>
<path d="M12.4998 18.9584H7.49984C2.97484 18.9584 1.0415 17.025 1.0415 12.5V7.50002C1.0415 2.97502 2.97484 1.04169 7.49984 1.04169H12.4998C17.0248 1.04169 18.9582 2.97502 18.9582 7.50002V12.5C18.9582 17.025 17.0248 18.9584 12.4998 18.9584ZM7.49984 2.29169C3.65817 2.29169 2.2915 3.65835 2.2915 7.50002V12.5C2.2915 16.3417 3.65817 17.7084 7.49984 17.7084H12.4998C16.3415 17.7084 17.7082 16.3417 17.7082 12.5V7.50002C17.7082 3.65835 16.3415 2.29169 12.4998 2.29169H7.49984Z" fill="#0027B2"/>
</svg>
