<svg width="10" height="10" viewBox="0 0 10 10" fill="none" xmlns="http://www.w3.org/2000/svg">
<path d="M4.99984 5.10415C4.8165 5.10415 4.63317 5.05831 4.4665 4.97081L1.754 3.50831C1.50817 3.37498 1.354 3.11248 1.354 2.82081C1.354 2.52915 1.50817 2.26665 1.754 2.13331L4.4665 0.670813C4.79984 0.491646 5.19984 0.491646 5.529 0.670813L8.2415 2.13331C8.48734 2.26665 8.6415 2.52915 8.6415 2.82081C8.6415 3.11248 8.48734 3.37498 8.2415 3.50831L5.529 4.97081C5.3665 5.06248 5.18317 5.10415 4.99984 5.10415ZM4.99984 1.15831C4.92067 1.15831 4.83734 1.17915 4.76234 1.22081L2.054 2.67915C1.98317 2.71665 1.979 2.79581 1.979 2.82081C1.979 2.84581 1.98317 2.92498 2.054 2.95831L4.7665 4.42081C4.9165 4.49998 5.08734 4.49998 5.23734 4.42081L7.94984 2.95831C8.0165 2.92081 8.02484 2.84165 8.02484 2.82081C8.02484 2.79581 8.02067 2.71665 7.94984 2.68331L5.23734 1.22081C5.16234 1.17915 5.079 1.15831 4.99984 1.15831Z" fill="#0027B2"/>
<path d="M4.07516 9.46671C3.9585 9.46671 3.83766 9.43755 3.72933 9.38338L1.20433 8.12505C0.783496 7.91255 0.520996 7.48755 0.520996 7.01671V4.63338C0.520996 4.36255 0.658496 4.11671 0.887663 3.97505C1.121 3.83338 1.40016 3.82088 1.64183 3.94171L4.16683 5.20005C4.58766 5.41255 4.85016 5.83338 4.85016 6.30838V8.69171C4.85016 8.96255 4.71266 9.20838 4.4835 9.35005C4.3585 9.42921 4.21683 9.46671 4.07516 9.46671ZM1.296 4.48338C1.26266 4.48338 1.2335 4.49588 1.21683 4.50421C1.19183 4.52088 1.146 4.55838 1.146 4.63338V7.01671C1.146 7.25005 1.27516 7.46255 1.4835 7.56671L4.00433 8.82921C4.071 8.86255 4.12516 8.83755 4.15016 8.82505C4.17516 8.80838 4.221 8.77088 4.221 8.69588V6.31255C4.221 6.07921 4.09183 5.86671 3.8835 5.76255L1.36266 4.50005C1.33766 4.48755 1.31683 4.48338 1.296 4.48338Z" fill="#0027B2"/>
<path d="M5.92539 9.46667C5.78372 9.46667 5.64206 9.42917 5.51706 9.35C5.28789 9.20833 5.15039 8.9625 5.15039 8.69167V6.30834C5.15039 5.8375 5.41289 5.4125 5.83372 5.2L8.35456 3.9375C8.59622 3.81667 8.87956 3.82917 9.10872 3.97083C9.33789 4.1125 9.47539 4.35833 9.47539 4.62917V7.0125C9.47539 7.48333 9.21289 7.90833 8.79206 8.12083L6.27122 9.38334C6.16289 9.44167 6.04206 9.46667 5.92539 9.46667ZM8.70456 4.48333C8.68372 4.48333 8.66289 4.4875 8.63789 4.5L6.11706 5.7625C5.90872 5.86667 5.77956 6.075 5.77956 6.3125V8.69584C5.77956 8.77083 5.82539 8.80833 5.85039 8.825C5.87539 8.84167 5.92956 8.8625 5.99622 8.82917L8.51706 7.56667C8.72539 7.4625 8.85456 7.25 8.85456 7.01667V4.63333C8.85456 4.55833 8.80872 4.52083 8.78372 4.50417C8.76706 4.49583 8.73789 4.48333 8.70456 4.48333Z" fill="#0027B2"/>
</svg>
